<svg width="29" height="25" viewBox="0 0 29 25" fill="none" xmlns="http://www.w3.org/2000/svg">
<path d="M14.5031 9.21615C14.5032 9.21604 14.5063 9.21922 14.5064 9.21912C15.8582 10.4317 17.7292 13.605 14.5064 16.708C14.5063 16.7079 14.4972 16.717 14.4971 16.7169L14.4936 16.7135C11.2708 13.6105 13.1418 10.4373 14.4936 9.22467C14.4939 9.22496 14.5028 9.21586 14.5031 9.21615Z" fill="white"/>
<path fill-rule="evenodd" clip-rule="evenodd" d="M22.1477 0.260944C22.0711 0.129811 22.0097 -0.0969236 22.3777 0.0452084C22.8378 0.222893 26.7607 2.12646 28.4474 7.96399C30.1341 13.8015 27.604 17.3929 25.6234 18.5858C25.5297 18.6239 25.3576 18.6391 25.419 18.3955C25.4956 18.0909 25.7512 17.4944 25.534 16.8599C25.3602 16.3523 25.0015 16.4538 24.8439 16.5681L21.5472 18.9285C21.3683 19.0469 20.967 19.3802 20.7933 19.766L19.8349 21.695C19.6773 21.9657 19.1449 22.6518 18.276 23.2305C18.1493 23.3563 16.864 24.36 14.5153 24.9955C14.5064 25 14.5064 25 14.4936 25C14.4808 25 14.4808 25 14.4681 24.9955C12.1194 24.3601 10.8507 23.3618 10.7241 23.236C9.85514 22.6574 9.32271 21.9712 9.16511 21.7005L8.20675 19.7716C8.03297 19.3858 7.63174 19.0525 7.45284 18.934L4.15607 16.5736C3.99847 16.4594 3.63983 16.3579 3.46605 16.8655C3.24882 17.5 3.50438 18.0964 3.58105 18.401C3.64238 18.6447 3.47031 18.6294 3.3766 18.5914C1.39598 17.3985 -1.1341 13.8071 0.552622 7.96954C2.23934 2.13198 6.16224 0.228425 6.62226 0.0507604C6.99026 -0.091364 6.92893 0.135363 6.85226 0.266496C4.84609 2.69035 5.12721 6.38325 5.70223 7.38579C6.27724 8.38832 6.29003 8.12182 7.60618 6.91624C8.6591 5.95178 9.47605 5.54991 9.75291 5.46954C9.29289 6.56091 9.74013 7.1066 10.5196 6.73858C11.1432 6.44416 11.725 5.37225 11.938 4.8731C12.2084 4.75183 13.453 4.68352 14.3019 4.65557C14.3913 4.65749 14.4918 4.64365 14.6002 4.64695C14.6341 4.64611 14.6668 4.65069 14.6981 4.65002C15.5471 4.67797 16.7917 4.74628 17.062 4.86754C17.275 5.3667 17.8568 6.43861 18.4804 6.73303C19.2599 7.10104 19.7071 6.55535 19.2471 5.46399C19.524 5.54437 20.3409 5.94623 21.3938 6.91069C22.71 8.11627 22.7228 8.38277 23.2978 7.38023C23.8728 6.37769 24.1539 2.6848 22.1477 0.260944ZM14.6981 8.50559C10.4659 8.36345 7.75526 11.4171 6.92893 12.9569C9.39838 16.7807 12.9403 17.5465 14.4681 17.4536V17.4437C15.9588 17.5621 19.5666 16.8295 22.0711 12.9513C21.2708 11.4601 18.7033 8.55817 14.6981 8.50559Z" fill="white"/>
<path d="M4.65442 18.2741C5.28481 18.7267 6.60437 19.7081 6.83948 20.0127C7.07461 20.3173 7.94267 23.0838 8.34731 24.4289C7.0269 23.9509 4.02829 22.4594 2.59713 20.3173C2.64832 20.2538 4.41164 19.8985 4.65442 19.2893C4.8972 18.6802 4.65442 18.8452 4.65442 18.2741Z" fill="white"/>
<path d="M24.3456 18.2686C24.3456 18.8396 24.1028 18.6746 24.3456 19.2838C24.5884 19.8929 26.3518 20.2483 26.4029 20.3117C24.9717 22.4538 21.9731 23.9454 20.6527 24.4234C21.0573 23.0782 21.9254 20.3117 22.1605 20.0071C22.3956 19.7026 23.7152 18.7212 24.3456 18.2686Z" fill="white"/>
</svg>
