<svg width="30" height="25" viewBox="0 0 30 25" fill="none" xmlns="http://www.w3.org/2000/svg">
<path d="M14.7175 21.09C15.1635 21.09 7.76016 24.8223 7.6115 25L9.60357 21.3566L1.99207 20.2903L7.40337 17.4467L0 7.43483L8.83053 12.4408L7.64123 7.16825L12.3687 11.404L15.1933 0L18.226 12.7666L22.329 9.50829L20.8722 15.6398L30 12.2038L22.329 19.1351L26.6105 21.3566H17.78C17.9941 20.6931 20.9019 17.9404 22.329 16.6469L18.226 17.891L19.7126 13.7145L16.6799 15.9953L15.1933 7.43483L13.4093 14.9585L10.2279 11.6706L11.5956 15.9953L6.83845 13.3294L10.8523 18.3649L7.40337 19.4905C11.1199 19.609 14.2716 21.09 14.7175 21.09Z" fill="white"/>
<path d="M7.40337 2.22156C6.94747 2.25118 5.98811 2.32227 5.79782 2.36967L6.54113 3.96919L8.02775 5.42062L7.40337 2.22156Z" fill="white"/>
<path d="M21.0505 7.58294L21.8533 4.73934L23.8454 3.11019L23.0723 5.89455L21.0505 7.58294Z" fill="white"/>
<path d="M23.5481 8.50118L25.005 6.16114L26.9078 6.36848L23.5481 8.50118Z" fill="white"/>
</svg>
