<svg width="27" height="25" viewBox="0 0 27 25" fill="none" xmlns="http://www.w3.org/2000/svg">
<path fill-rule="evenodd" clip-rule="evenodd" d="M9.92113 6.85416C16.0699 -1.40106 23.8689 -0.508304 26.9998 0.969987C20.564 0.691039 16.0924 5.37947 14.661 7.75855C18.6703 5.95408 22.0498 6.70158 23.2384 7.30089C21.1598 7.51011 19.8792 8.41234 19.4987 8.83731C22.9427 8.63681 25.3329 10.5771 26.0975 11.5723C24.7495 11.2062 23.5572 11.4198 23.1296 11.5723C26.2606 13.2373 27.0143 15.7675 26.9998 16.8245C26.4519 16.162 25.4525 16.0472 25.0212 16.0726C25.9344 23.7787 14.3348 25.2185 8.4209 24.9751C14.2914 21.5667 14.7371 18.9639 14.2261 18.0885C16.1916 16.8594 18.0528 17.1986 18.7377 17.5219C18.8507 14.5493 16.4873 13.9805 15.2915 14.0677C16.4917 14.4774 17.2048 15.7058 17.4114 16.2688C13.9544 16.029 10.6495 18.0231 8.77965 19.4833C7.28378 20.6514 6.88806 21.7134 6.87719 22.0984C3.90284 21.8718 3.46363 19.8465 3.61583 18.8622C3.85934 19.577 4.62323 19.9373 4.97473 20.0281C4.73122 19.2435 4.82978 18.8513 4.9095 18.7532C5.06605 19.1716 5.56177 19.3489 5.79007 19.3852C5.93792 19.3242 6.15607 19.1055 6.24666 19.0038C6.06403 18.7684 6.00387 18.4699 5.99662 18.35C6.25753 18.5331 6.53293 18.5062 6.63803 18.4699C6.85545 18.2519 6.94242 18.0885 7.32291 16.9988C7.6273 16.1271 8.03678 15.575 8.20348 15.4079C8.83835 14.4316 10.0987 13.9478 10.6495 13.8279C7.71428 13.6754 6.08359 14.4926 5.27912 14.7868C4.63556 15.0222 4.53988 15.6695 4.5725 15.9637C3.98545 15.4624 3.78977 15.4406 3.36579 15.8438C3.02662 16.1663 3.22447 16.8645 3.36579 17.1732C2.60917 17.1296 2.29679 16.4213 2.23519 16.0726C1.29592 16.2993 1.35824 17.511 1.50682 18.0885C1.08646 17.9614 0.200096 17.2473 0.0174609 15.4079C-0.165174 13.5686 1.12994 12.484 1.80034 12.1717C1.94818 12.6511 2.15184 12.7274 2.23519 12.7056C2.60046 12.5574 3.6122 11.8884 4.07242 11.5723C3.84413 10.0795 6.24666 8.25982 7.59469 7.46436C8.6731 6.82801 9.34132 6.24759 9.54064 6.03691C9.87982 6.35945 9.93562 6.71613 9.92113 6.85416ZM9.09492 9.93786C7.40771 9.65892 6.18868 10.9113 5.79007 11.5723C5.84443 11.507 7.50772 11.4852 8.25784 11.1147C8.85793 10.8183 9.06593 10.2066 9.09492 9.93786Z" fill="white"/>
</svg>
