<svg width="37" height="25" viewBox="0 0 37 25" fill="none" xmlns="http://www.w3.org/2000/svg">
<path fill-rule="evenodd" clip-rule="evenodd" d="M14.2801 7.22543C17.6785 7.20292 24.6374 7.17141 25.2856 7.22543C25.9338 7.27945 26.4109 7.78816 26.5684 8.03576L28.9991 14.2145C29.7823 14.1605 30.2032 14.6872 30.3157 14.9573H31.5648C32.429 15.0384 32.9377 15.7564 33.0839 16.1053L35.3796 22.1828C36.4328 22.2908 36.8537 23.1282 36.9325 23.5333L37 24.9852H15.7993C15.788 25.0527 15.7723 24.9243 15.7993 23.871C15.8263 22.8175 16.7333 22.3066 17.1834 22.1828L19.5803 15.7677H18.2637L15.1916 22.5204C14.5502 20.9223 13.2201 17.5707 13.031 16.9494C12.7947 16.1728 11.8157 16.0715 11.6469 16.0715H6.71807C6.06991 16.4767 6.44799 17.0282 6.71807 17.2533C7.7646 17.287 10.0535 17.3613 10.8367 17.3883C11.6199 17.4153 11.9957 18.0523 12.0858 18.3675L14.5502 24.9852C10.0377 24.9739 0.810219 24.9582 0 24.9852V23.7359C0.108029 22.6285 1.1028 22.2391 1.58668 22.1828C2.17183 20.4946 3.42992 16.9089 3.78102 16.0715C4.13212 15.2342 4.85006 15.0474 5.16515 15.0586H9.25C9.65511 14.3833 10.3415 14.2145 10.6341 14.2145C11.298 12.4026 12.7069 8.63007 13.031 8.03576C13.3551 7.44151 13.9988 7.24794 14.2801 7.22543ZM21.9434 16.0715C21.7071 16.2854 21.3763 16.8278 21.9434 17.287C22.1595 17.287 24.9367 17.3996 26.2984 17.4558C26.5684 17.4671 27.1693 17.6584 27.4124 18.3337C27.6555 19.009 28.7965 21.9915 29.3367 23.3983C29.618 23.6121 30.2482 23.8304 30.5182 22.9931L28.3577 16.7806C28.2789 16.5442 27.9796 16.0715 27.4124 16.0715H21.9434ZM20.8294 8.23834C19.1077 8.26085 15.6372 8.30587 15.5292 8.30587C14.881 8.71103 15.2591 9.19498 15.5292 9.38631C16.6432 9.44258 19.0739 9.56864 19.8841 9.62266C20.6943 9.67668 20.9419 10.0728 20.9644 10.2642L22.8212 14.9573H24.0027C23.4401 13.2917 22.2405 9.78478 21.9434 9.08244C21.6464 8.38015 21.0769 8.22709 20.8294 8.23834Z" fill="white"/>
<path d="M29.5055 7.63061L28.3128 5.08694L25.927 3.8153L28.3128 2.54367L29.5055 0L30.6982 2.54367L33.0839 3.8153L30.6982 5.08694L29.5055 7.63061Z" fill="white"/>
<path d="M33.354 12.0199L32.7914 10.7818L31.6661 10.1629L32.7914 9.54395L33.354 8.30588L33.9166 9.54395L35.042 10.1629L33.9166 10.7818L33.354 12.0199Z" fill="white"/>
<path d="M8.5073 9.11621L7.53964 6.97773L5.60401 5.90866L7.53964 4.83958L8.5073 2.7011L9.47496 4.83958L11.4106 5.90866L9.47496 6.97773L8.5073 9.11621Z" fill="white"/>
</svg>
