<svg width="23" height="25" viewBox="0 0 23 25" fill="none" xmlns="http://www.w3.org/2000/svg">
<path d="M19.2795 9.77116C19.3655 10.7065 19.4717 12.7316 19.2083 13.3491C19.4812 13.676 20.0005 14.575 20.223 15.3832C20.2942 15.6647 20.4633 15.9916 19.8937 16.6818C18.4606 18.6978 14.5977 22.8424 11.5001 25H11.5C8.40245 22.8424 4.53941 18.7069 3.10635 16.6909C2.53669 16.0007 2.7058 15.6738 2.77701 15.3923C2.99954 14.5841 3.51876 13.6851 3.79173 13.3582C3.52826 12.7406 3.63448 10.7156 3.72052 9.78024L5.05567 10.4704C5.14765 10.6157 5.31729 11.0989 5.68764 11.5874C6.05258 12.0687 6.2217 12.1958 6.43533 12.2957L9.07893 13.8939L11.5 24.2372L13.9211 13.8849L16.5647 12.2866C16.7783 12.1867 16.9474 12.0596 17.3124 11.5783C17.6827 11.0899 17.8524 10.6066 17.9443 10.4613L19.2795 9.77116Z" fill="white"/>
<path fill-rule="evenodd" clip-rule="evenodd" d="M19.2706 0C20.4455 0.69621 22.8328 2.89139 22.9823 6.10243C23.1692 10.1162 21.8519 10.6429 20.1518 11.9688C20.1518 11.7 20.0687 9.51386 20.0272 8.45441L13.8054 11.5783C13.6511 11.6963 13.3247 12.0124 13.2535 12.332C13.1823 12.6517 12.0548 17.4658 11.5 19.8329C10.9452 17.4658 9.81771 12.6607 9.7465 12.3411C9.67529 12.0214 9.34892 11.7054 9.19464 11.5874L2.97283 8.46349C2.9313 9.52294 2.84822 11.709 2.84822 11.9778C1.14813 10.652 -0.169222 10.1253 0.0176989 6.11151C0.167236 2.90047 2.55449 0.705292 3.72942 0.009081C2.94613 2.02506 3.21316 3.4417 3.48019 4.67672C3.74722 5.91173 4.69073 5.24882 4.87765 4.93098C5.02719 4.67672 5.6105 4.36494 5.88346 4.24083L11.5 1.25424L17.1165 4.23175C17.3895 4.35585 17.9728 4.66764 18.1223 4.9219C18.3093 5.23974 19.2528 5.90265 19.5198 4.66764C19.7868 3.43262 20.0539 2.01598 19.2706 0ZM11.5 4.78569L9.91562 7.99128L11.5 10.9063L13.0844 7.9822L11.5 4.78569Z" fill="white"/>
</svg>
