<svg width="17" height="25" viewBox="0 0 17 25" fill="none" xmlns="http://www.w3.org/2000/svg">
<path d="M4.84905 13.7613C5.38733 13.9606 6.67453 14.3505 7.51705 14.3153C7.5451 14.3158 7.36492 17.3872 7.27132 18.9229C7.25961 19.3977 7.13967 20.4072 6.75351 20.6464L4.98069 21.8598C5.56579 21.9566 7.20462 22.1377 9.07924 22.0885V22.1004C10.446 22.0731 11.5589 21.9447 12.0193 21.8686L10.2465 20.6552C9.86033 20.416 9.74039 19.4065 9.72869 18.9317C9.63507 17.3958 9.45486 14.3241 9.48295 14.3241C10.3255 14.3592 11.6127 13.9694 12.151 13.7701L13.1076 18.2986C13.2655 19.0372 13.5288 19.3538 14.0115 19.7143C14.3977 20.0027 15.7463 20.7138 16.3724 21.0333C16.4496 21.0684 16.4806 21.1476 16.4865 21.1828L16.9867 23.1436C17.0359 23.3476 16.937 23.4279 16.8814 23.4426C14.4692 24.5065 11.1606 24.8999 9.07924 24.9902C8.96835 24.9915 8.84758 24.9916 8.7179 24.9903C8.41625 24.9992 8.14782 25.0016 7.92076 24.999C5.83938 24.9087 2.53078 24.4977 0.118611 23.4338C0.0630277 23.4192 -0.0358522 23.3388 0.0132952 23.1348L0.513546 21.174C0.519397 21.1388 0.550407 21.0596 0.627638 21.0245C1.25368 20.705 2.60231 19.9939 2.98847 19.7055C3.47116 19.345 3.73446 19.0284 3.89243 18.2898L4.84905 13.7613Z" fill="white"/>
<path d="M4.10306 6.0585C4.05625 6.16401 3.97668 6.41374 4.03285 6.5685C2.58204 7.96189 1.40833 10.7603 8.58598 11.104C15.5727 10.724 14.4063 7.95945 12.9671 6.57729C13.0233 6.42254 12.9437 6.17281 12.8969 6.06729C18.1715 7.89627 15.9599 11.1146 14.1871 11.9147C11.8701 13.1458 9.04414 13.3773 7.92076 13.2865C6.54419 13.1985 4.53755 12.8223 2.81294 11.906C1.04013 11.1058 -1.17151 7.88748 4.10306 6.0585Z" fill="white"/>
<path d="M8.5 0L12.0281 6.16401C12.0702 6.25546 12.0456 6.36626 12.0281 6.41022L9.69358 9.98025C9.60231 10.1069 9.44492 10.1327 9.37763 10.1297H8.5L7.62237 10.1209C7.55508 10.1239 7.39769 10.0981 7.30642 9.97146L4.97192 6.40143C4.95437 6.35746 4.92979 6.24667 4.97192 6.15522L8.5 0Z" fill="white"/>
</svg>
