<svg width="19" height="25" viewBox="0 0 19 25" fill="none" xmlns="http://www.w3.org/2000/svg">
<path d="M13.6954 9.7412C13.7524 9.7481 13.8827 9.8116 13.9475 10.0104L15.541 18.9855L17.7738 20.2381L18.9352 24.3064C19.0192 24.5169 19.0882 24.9503 18.6921 25H0.307901C-0.0882233 24.9503 -0.0192087 24.5169 0.0648186 24.3064L1.22621 20.2381L3.45896 18.9855L5.0525 10.0104C5.11732 9.8116 5.24756 9.74811 5.30458 9.7412H13.6954Z" fill="white"/>
<path d="M4.51232 0C4.58734 0 4.7482 0.0455504 4.79141 0.227743L5.13353 2.32919H7.32126V0.227743C7.32126 0.15183 7.36809 3.86131e-06 7.55534 0H11.4447C11.6319 0 11.6787 0.151829 11.6787 0.227743V2.32919H13.8665L14.2086 0.227743C14.2518 0.0455535 14.4127 2.44638e-06 14.4877 0H17.9358C18.2599 0 18.263 0.303658 18.2239 0.455487L17.0535 5.65217L14.5957 7.82609H4.40428L1.94645 5.65217L0.776058 0.455487C0.737046 0.303658 0.740055 4.4625e-06 1.06416 0H4.51232Z" fill="white"/>
</svg>
