<svg width="28" height="25" viewBox="0 0 28 25" fill="none" xmlns="http://www.w3.org/2000/svg">
<path fill-rule="evenodd" clip-rule="evenodd" d="M13.9945 8.99224C17.0374 8.99224 19.6863 10.1107 20.6823 11.6677C21.4792 12.9133 20.5984 14.694 20.0584 15.4286C19.5943 15.8497 19.9453 16.357 20.1788 16.558C20.6276 16.9783 21.3237 18.4659 20.5181 21.0536C19.7125 23.6414 17.1323 24.7561 15.9428 24.99C17.0921 23.0712 18.2196 20.1545 16.9827 19.8694C15.9993 19.6428 14.5958 20.9568 14.0055 21.6547C14.0087 21.6586 14.0023 21.6509 14.0055 21.6547C14.0006 21.6605 13.9949 21.6642 13.9945 21.6647C13.4042 20.9668 12.0007 19.6527 11.0173 19.8794C9.78045 20.1645 10.9079 23.0811 12.0572 25C10.8677 24.7661 8.28746 23.6513 7.48185 21.0636C6.67625 18.4759 7.3724 16.9883 7.82117 16.568C8.05468 16.367 8.40565 15.8596 7.94157 15.4386C7.40159 14.704 6.52082 12.9232 7.31767 11.6776C8.31254 10.1225 10.9562 9.0049 13.9945 9.00222V8.99224ZM10.0541 15.2741C9.95558 15.72 10.0169 16.8597 11.0501 17.8509C11.6923 18.326 12.7971 18.8509 12.079 17.1491C11.8784 16.6996 11.1924 15.6952 10.0541 15.2741ZM17.9459 15.2642C16.8076 15.6852 16.1216 16.6896 15.921 17.1392C15.2029 18.8409 16.3077 18.3161 16.9499 17.8409C17.9831 16.8497 18.0444 15.7101 17.9459 15.2642Z" fill="white"/>
<path d="M3.58517 11.2939C4.18061 12.4956 5.58458 13.8999 6.21213 14.4518C6.2997 14.9342 6.73023 15.6542 6.93455 15.954C6.48797 16.3662 6.19389 17.0322 6.10268 17.3136C5.31459 16.8838 4.28572 15.9649 3.86978 15.5592C2.08345 17.0154 0.965504 19.8355 0.629834 21.0636C-1.34038 15.9057 1.77913 12.4013 3.58517 11.2939Z" fill="white"/>
<path d="M24.4148 11.2839C26.2209 12.3914 29.3404 15.8958 27.3702 21.0536C27.0345 19.8256 25.9166 17.0054 24.1302 15.5493C23.7143 15.955 22.6854 16.8738 21.8973 17.3036C21.8061 17.0222 21.512 16.3563 21.0655 15.944C21.2698 15.6443 21.7003 14.9243 21.7879 14.4418C22.4154 13.8899 23.8194 12.4857 24.4148 11.2839Z" fill="white"/>
<path d="M3.86976 5.31799C4.24629 6.44956 5.63931 8.07018 6.28875 8.73904C6.33254 9.3443 6.62807 10.1243 6.77036 10.4386C6.33254 10.8158 6.10633 11.2683 6.04795 11.4474C5.25986 10.9561 4.17988 9.83187 3.73841 9.33114C2.34612 10.1118 0.954558 12.0541 0.432811 12.9276C-0.372787 8.49782 2.38844 6.00878 3.86976 5.31799Z" fill="white"/>
<path d="M24.1302 5.30803C25.6116 5.99882 28.3728 8.48786 27.5672 12.9177C27.0454 12.0441 25.6539 10.1019 24.2616 9.32118C23.8201 9.82192 22.7401 10.9462 21.9521 11.4374C21.8937 11.2583 21.6675 10.8058 21.2296 10.4286C21.3719 10.1143 21.6675 9.33434 21.7112 8.72908C22.3607 8.06022 23.7537 6.4396 24.1302 5.30803Z" fill="white"/>
<path d="M13.9945 3.7839C14.9504 3.7437 17.3505 4.14137 19.3032 6.05364C21.2559 7.96591 20.4416 9.43082 20.2555 9.8804C19.3554 9.16494 16.8468 7.75029 14.0055 7.80783C11.1596 7.74643 8.64573 9.17397 7.74453 9.89035C7.55845 9.44078 6.74411 7.97587 8.6968 6.0636C10.6421 4.15859 13.0313 3.74718 13.9945 3.7839Z" fill="white"/>
<path d="M13.9945 0.00101008C15.4722 -0.0355396 18.7034 0.906718 19.8067 4.96812C18.9105 4.1725 16.4972 2.58246 14.0055 2.57781C11.5099 2.57781 9.09086 4.18129 8.1933 4.97807C9.29391 0.926686 12.5119 -0.0306234 13.9945 0.00101008Z" fill="white"/>
</svg>
